{
  "accessors": [
    {
      "bufferView": 2,
      "componentType": 5126,
      "count": 2534,
      "max": [
        0.9889682531356812,
        1.0,
        1.0000001192092896
      ],
      "min": [
        -1.0110317468643188,
        -1.0,
        -0.9999999403953552
      ],
      "type": "VEC3"
    },
    {
      "bufferView": 2,
      "byteOffset": 30408,
      "componentType": 5126,
      "count": 2534,
      "max": [
        0.9994456171989441,
        0.998965859413147,
        0.9989649057388306
      ],
      "min": [
        -0.9989038705825806,
        -0.998965859413147,
        -0.9989655613899231
      ],
      "type": "VEC3"
    },
    {
      "bufferView": 1,
      "componentType": 5126,
      "count": 2534,
      "max": [
        0.875,
        1.0
      ],
      "min": [
        0.125,
        0.0
      ],
      "type": "VEC2"
    },
    {
      "bufferView": 0,
      "componentType": 5125,
      "count": 12420,
      "type": "SCALAR"
    },
    {
      "bufferView": 2,
      "byteOffset": 60816,
      "componentType": 5126,
      "count": 1100,
      "max": [
        0.6316052675247192,
        0.030680092051625252,
        0.7765779495239258
      ],
      "min": [
        -0.08304877579212189,
        -1.483579158782959,
        -0.7765779495239258
      ],
      "type": "VEC3"
    },
    {
      "bufferView": 2,
      "byteOffset": 74016,
      "componentType": 5126,
      "count": 1100,
      "max": [
        0.9989122748374939,
        0.998328447341919,
        0.9985938668251038
      ],
      "min": [
        -0.9989120364189148,
        -0.9983279705047607,
        -0.9985938668251038
      ],
      "type": "VEC3"
    },
    {
      "bufferView": 1,
      "byteOffset": 20272,
      "componentType": 5126,
      "count": 1100,
      "max": [
        0.5970723628997803,
        0.7220723628997803
      ],
      "min": [
        0.4029277563095093,
        0.5279276967048645
      ],
      "type": "VEC2"
    },
    {
      "bufferView": 0,
      "byteOffset": 49680,
      "componentType": 5125,
      "count": 6324,
      "type": "SCALAR"
    },
    {
      "bufferView": 2,
      "byteOffset": 87216,
      "componentType": 5126,
      "count": 65532,
      "max": [
        0.14541342854499817,
        0.33838847279548645,
        0.3538001477718353
      ],
      "min": [
        -0.14849603176116943,
        -0.3399237394332886,
        -0.3537999093532562
      ],
      "type": "VEC3"
    },
    {
      "bufferView": 2,
      "byteOffset": 873600,
      "componentType": 5126,
      "count": 65532,
      "max": [
        0.99997878074646,
        0.9999733567237854,
        1.0
      ],
      "min": [
        -0.9999999403953552,
        -0.9999732971191406,
        -1.0
      ],
      "type": "VEC3"
    },
    {
      "bufferView": 1,
      "byteOffset": 29072,
      "componentType": 5126,
      "count": 65532,
      "max": [
        0.3459527790546417,
        0.3459528386592865
      ],
      "min": [
        0.1540471613407135,
        0.1540471762418747
      ],
      "type": "VEC2"
    },
    {
      "bufferView": 0,
      "byteOffset": 74976,
      "componentType": 5125,
      "count": 367737,
      "type": "SCALAR"
    },
    {
      "bufferView": 2,
      "byteOffset": 1659984,
      "componentType": 5126,
      "count": 65533,
      "max": [
        0.1589515060186386,
        0.3711804151535034,
        0.39464321732521057
      ],
      "min": [
        -0.24671801924705505,
        -0.37118008732795715,
        -0.39464321732521057
      ],
      "type": "VEC3"
    },
    {
      "bufferView": 2,
      "byteOffset": 2446380,
      "componentType": 5126,
      "count": 65533,
      "max": [
        0.9994869828224182,
        0.9995946288108826,
        1.0
      ],
      "min": [
        -0.9994868636131287,
        -0.9995947480201721,
        -1.0
      ],
      "type": "VEC3"
    },
    {
      "bufferView": 1,
      "byteOffset": 553328,
      "componentType": 5126,
      "count": 65533,
      "max": [
        1.0000001192092896,
        1.0000001192092896
      ],
      "min": [
        0.0,
        0.0
      ],
      "type": "VEC2"
    },
    {
      "bufferView": 0,
      "byteOffset": 1545924,
      "componentType": 5125,
      "count": 241743,
      "type": "SCALAR"
    },
    {
      "bufferView": 2,
      "byteOffset": 3232776,
      "componentType": 5126,
      "count": 65532,
      "max": [
        0.05417831242084503,
        0.10766809433698654,
        0.18783293664455414
      ],
      "min": [
        -0.24671801924705505,
        -0.24381041526794434,
        -0.18783298134803772
      ],
      "type": "VEC3"
    },
    {
      "bufferView": 2,
      "byteOffset": 4019160,
      "componentType": 5126,
      "count": 65532,
      "max": [
        0.9992939829826355,
        0.9996960163116455,
        0.9998710751533508
      ],
      "min": [
        -0.9356225728988647,
        -0.9342262148857117,
        -0.9999175071716309
      ],
      "type": "VEC3"
    },
    {
      "bufferView": 1,
      "byteOffset": 1077592,
      "componentType": 5126,
      "count": 65532,
      "max": [
        0.9900000095367432,
        1.0000001192092896
      ],
      "min": [
        0.0,
        0.01000000536441803
      ],
      "type": "VEC2"
    },
    {
      "bufferView": 0,
      "byteOffset": 2512896,
      "componentType": 5125,
      "count": 98298,
      "type": "SCALAR"
    },
    {
      "bufferView": 2,
      "byteOffset": 4805544,
      "componentType": 5126,
      "count": 5674,
      "max": [
        0.08881716430187225,
        0.07567297667264938,
        0.10078371316194534
      ],
      "min": [
        -0.19552095234394073,
        -0.2033757120370865,
        -0.02366148866713047
      ],
      "type": "VEC3"
    },
    {
      "bufferView": 2,
      "byteOffset": 4873632,
      "componentType": 5126,
      "count": 5674,
      "max": [
        0.9378369450569153,
        0.98321133852005,
        0.9999175071716309
      ],
      "min": [
        -0.3530368208885193,
        -0.16991589963436127,
        -0.18301187455654144
      ],
      "type": "VEC3"
    },
    {
      "bufferView": 1,
      "byteOffset": 1601848,
      "componentType": 5126,
      "count": 5674,
      "max": [
        0.3459527790546417,
        0.37597888708114624
      ],
      "min": [
        0.12402107566595078,
        0.1540471911430359
      ],
      "type": "VEC2"
    },
    {
      "bufferView": 0,
      "byteOffset": 2906088,
      "componentType": 5125,
      "count": 11070,
      "type": "SCALAR"
    }
  ],
  "asset": {
    "extras": {
      "author": "AyoubBani (https://sketchfab.com/AyoubBani)",
      "license": "CC-BY-4.0 (http://creativecommons.org/licenses/by/4.0/)",
      "source": "https://sketchfab.com/3d-models/safe-box-90678160c76348aca4c4b7c37625adbd",
      "title": "Safe Box"
    },
    "generator": "Sketchfab-12.97.0",
    "version": "2.0"
  },
  "bufferViews": [
    {
      "buffer": 0,
      "byteLength": 2950368,
      "name": "floatBufferViews",
      "target": 34963
    },
    {
      "buffer": 0,
      "byteLength": 1647240,
      "byteOffset": 2950368,
      "byteStride": 8,
      "name": "floatBufferViews",
      "target": 34962
    },
    {
      "buffer": 0,
      "byteLength": 4941720,
      "byteOffset": 4597608,
      "byteStride": 12,
      "name": "floatBufferViews",
      "target": 34962
    }
  ],
  "buffers": [
    {
      "byteLength": 9539328,
      "uri": "scene.bin"
    }
  ],
  "materials": [
    {
      "doubleSided": true,
      "name": "Black",
      "pbrMetallicRoughness": {
        "baseColorFactor": [
          0.08756462137077992,
          0.08756462137077992,
          0.08756462137077992,
          1.0
        ],
        "metallicFactor": 0.7036400385349175,
        "roughnessFactor": 0.4391847220385727
      }
    },
    {
      "doubleSided": true,
      "name": "Metal",
      "pbrMetallicRoughness": {
        "baseColorFactor": [
          0.8,
          0.8,
          0.8,
          1.0
        ],
        "roughnessFactor": 0.420295056574548
      }
    }
  ],
  "meshes": [
    {
      "name": "Cube_Black_0",
      "primitives": [
        {
          "attributes": {
            "NORMAL": 1,
            "POSITION": 0,
            "TEXCOORD_0": 2
          },
          "indices": 3,
          "material": 0,
          "mode": 4
        }
      ]
    },
    {
      "name": "Cube.001_Black_0",
      "primitives": [
        {
          "attributes": {
            "NORMAL": 5,
            "POSITION": 4,
            "TEXCOORD_0": 6
          },
          "indices": 7,
          "material": 0,
          "mode": 4
        }
      ]
    },
    {
      "name": "Cylinder.002_Metal_0",
      "primitives": [
        {
          "attributes": {
            "NORMAL": 9,
            "POSITION": 8,
            "TEXCOORD_0": 10
          },
          "indices": 11,
          "material": 1,
          "mode": 4
        }
      ]
    },
    {
      "name": "Cylinder.002_Metal_0",
      "primitives": [
        {
          "attributes": {
            "NORMAL": 13,
            "POSITION": 12,
            "TEXCOORD_0": 14
          },
          "indices": 15,
          "material": 1,
          "mode": 4
        }
      ]
    },
    {
      "name": "Cylinder.002_Metal_0",
      "primitives": [
        {
          "attributes": {
            "NORMAL": 17,
            "POSITION": 16,
            "TEXCOORD_0": 18
          },
          "indices": 19,
          "material": 1,
          "mode": 4
        }
      ]
    },
    {
      "name": "Cylinder.002_Metal_0",
      "primitives": [
        {
          "attributes": {
            "NORMAL": 21,
            "POSITION": 20,
            "TEXCOORD_0": 22
          },
          "indices": 23,
          "material": 1,
          "mode": 4
        }
      ]
    }
  ],
  "nodes": [
    {
      "children": [
        1
      ],
      "matrix": [
        1.0,
        0.0,
        0.0,
        0.0,
        0.0,
        2.220446049250313e-16,
        -1.0,
        0.0,
        0.0,
        1.0,
        2.220446049250313e-16,
        0.0,
        0.0,
        0.0,
        0.0,
        1.0
      ],
      "name": "Sketchfab_model"
    },
    {
      "children": [
        2
      ],
      "matrix": [
        0.009999999776482582,
        0.0,
        0.0,
        0.0,
        0.0,
        0.0,
        0.009999999776482582,
        0.0,
        0.0,
        -0.009999999776482582,
        0.0,
        0.0,
        0.0,
        0.0,
        0.0,
        1.0
      ],
      "name": "b1fdd5f6bd9d4bc98256e606e70645a4.fbx"
    },
    {
      "children": [
        3,
        5
      ],
      "name": "RootNode"
    },
    {
      "children": [
        4
      ],
      "matrix": [
        100.0,
        0.0,
        0.0,
        0.0,
        0.0,
        -1.629206793918314e-05,
        -99.99999999999868,
        0.0,
        0.0,
        99.99999999999868,
        -1.629206793918314e-05,
        0.0,
        1.1031724214553833,
        -6.494556146208197e-06,
        1.874662189038645e-06,
        1.0
      ],
      "name": "Cube"
    },
    {
      "mesh": 0,
      "name": "Cube_Black_0"
    },
    {
      "children": [
        6,
        7
      ],
      "matrix": [
        100.0,
        0.0,
        0.0,
        0.0,
        0.0,
        -1.629206793918314e-05,
        -99.99999999999868,
        0.0,
        0.0,
        99.99999999999868,
        -1.629206793918314e-05,
        0.0,
        95.4459457397461,
        0.0,
        -77.65779113769531,
        1.0
      ],
      "name": "Cube.001"
    },
    {
      "mesh": 1,
      "name": "Cube.001_Black_0"
    },
    {
      "children": [
        8,
        9,
        10,
        11
      ],
      "matrix": [
        1.0,
        0.0,
        0.0,
        0.0,
        0.0,
        1.0,
        -2.646977960169688e-23,
        0.0,
        0.0,
        2.646977960169688e-23,
        1.0,
        0.0,
        0.5369119048118591,
        -0.627433180809021,
        9.750414697862197e-09,
        1.0
      ],
      "name": "Cylinder.002"
    },
    {
      "mesh": 2,
      "name": "Cylinder.002_Metal_0"
    },
    {
      "mesh": 3,
      "name": "Cylinder.002_Metal_0"
    },
    {
      "mesh": 4,
      "name": "Cylinder.002_Metal_0"
    },
    {
      "mesh": 5,
      "name": "Cylinder.002_Metal_0"
    }
  ],
  "scene": 0,
  "scenes": [
    {
      "name": "Sketchfab_Scene",
      "nodes": [
        0
      ]
    }
  ]
}
