{
	"asset":{
		"generator":"Khronos glTF Blender I/O v3.5.30",
		"version":"2.0"
	},
	"scene":0,
	"scenes":[
		{
			"name":"Scene",
			"nodes":[
				3,
				4
			]
		}
	],
	"nodes":[
		{
			"mesh":0,
			"name":"Object_2"
		},
		{
			"mesh":1,
			"name":"Object_3"
		},
		{
			"children":[
				0,
				1
			],
			"name":"285ec5a60675443d96a9649e4f193e85.obj.cleaner.materialmerger.gle"
		},
		{
			"children":[
				2
			],
			"name":"Sketchfab_model",
			"translation":[
				0,
				-0.014557421207427979,
				-0.02995985746383667
			]
		},
		{
			"mesh":2,
			"name":"BezierCurve"
		}
	],
	"materials":[
		{
			"doubleSided":true,
			"name":"Material.001",
			"pbrMetallicRoughness":{
				"baseColorTexture":{
					"index":0
				},
				"metallicRoughnessTexture":{
					"index":1
				},
				"roughnessFactor":0.3786807954311371
			}
		},
		{
			"doubleSided":true,
			"name":"Material.002",
			"pbrMetallicRoughness":{
				"metallicFactor":0,
				"roughnessFactor":0
			}
		},
		{
			"doubleSided":true,
			"name":"Material.003",
			"pbrMetallicRoughness":{
				"baseColorFactor":[
					0.005952035542577505,
					0.025538044050335884,
					0.8000000715255737,
					1
				],
				"metallicFactor":0,
				"roughnessFactor":0.5
			}
		}
	],
	"meshes":[
		{
			"name":"Object_0",
			"primitives":[
				{
					"attributes":{
						"POSITION":0,
						"TEXCOORD_0":1,
						"NORMAL":2
					},
					"indices":3,
					"material":0
				}
			]
		},
		{
			"name":"Object_1",
			"primitives":[
				{
					"attributes":{
						"POSITION":4,
						"TEXCOORD_0":5,
						"NORMAL":6
					},
					"indices":7,
					"material":1
				}
			]
		},
		{
			"name":"BezierCurve.001",
			"primitives":[
				{
					"attributes":{
						"POSITION":8,
						"TEXCOORD_0":9,
						"NORMAL":10
					},
					"indices":11,
					"material":2
				}
			]
		}
	],
	"textures":[
		{
			"sampler":0,
			"source":0
		},
		{
			"sampler":0,
			"source":1
		}
	],
	"images":[
		{
			"bufferView":4,
			"mimeType":"image/png",
			"name":"Material.001_baseColor"
		},
		{
			"bufferView":5,
			"mimeType":"image/png",
			"name":"Material.001_metallicRoughness"
		}
	],
	"accessors":[
		{
			"bufferView":0,
			"componentType":5126,
			"count":2346,
			"max":[
				2.4602670669555664,
				2.493407964706421,
				0.6243370175361633
			],
			"min":[
				-2.4934089183807373,
				-2.4488930702209473,
				-0.6089339852333069
			],
			"type":"VEC3"
		},
		{
			"bufferView":1,
			"componentType":5126,
			"count":2346,
			"type":"VEC2"
		},
		{
			"bufferView":2,
			"componentType":5126,
			"count":2346,
			"type":"VEC3"
		},
		{
			"bufferView":3,
			"componentType":5123,
			"count":13848,
			"type":"SCALAR"
		},
		{
			"bufferView":6,
			"componentType":5126,
			"count":893,
			"max":[
				0.9377800226211548,
				2.336441993713379,
				0.48255598545074463
			],
			"min":[
				-2.337083101272583,
				-0.9384210109710693,
				-0.48255598545074463
			],
			"type":"VEC3"
		},
		{
			"bufferView":7,
			"componentType":5126,
			"count":893,
			"type":"VEC2"
		},
		{
			"bufferView":8,
			"componentType":5126,
			"count":893,
			"type":"VEC3"
		},
		{
			"bufferView":9,
			"componentType":5123,
			"count":5760,
			"type":"SCALAR"
		},
		{
			"bufferView":10,
			"componentType":5126,
			"count":128,
			"max":[
				0.11714053153991699,
				1.8727880716323853,
				0.5811070799827576
			],
			"min":[
				-1.5132191181182861,
				-0.3997814953327179,
				0.498175710439682
			],
			"type":"VEC3"
		},
		{
			"bufferView":11,
			"componentType":5126,
			"count":128,
			"type":"VEC2"
		},
		{
			"bufferView":12,
			"componentType":5126,
			"count":128,
			"type":"VEC3"
		},
		{
			"bufferView":13,
			"componentType":5123,
			"count":372,
			"type":"SCALAR"
		}
	],
	"bufferViews":[
		{
			"buffer":0,
			"byteLength":28152,
			"byteOffset":0,
			"target":34962
		},
		{
			"buffer":0,
			"byteLength":18768,
			"byteOffset":28152,
			"target":34962
		},
		{
			"buffer":0,
			"byteLength":28152,
			"byteOffset":46920,
			"target":34962
		},
		{
			"buffer":0,
			"byteLength":27696,
			"byteOffset":75072,
			"target":34963
		},
		{
			"buffer":0,
			"byteLength":3195,
			"byteOffset":102768
		},
		{
			"buffer":0,
			"byteLength":3589,
			"byteOffset":105964
		},
		{
			"buffer":0,
			"byteLength":10716,
			"byteOffset":109556,
			"target":34962
		},
		{
			"buffer":0,
			"byteLength":7144,
			"byteOffset":120272,
			"target":34962
		},
		{
			"buffer":0,
			"byteLength":10716,
			"byteOffset":127416,
			"target":34962
		},
		{
			"buffer":0,
			"byteLength":11520,
			"byteOffset":138132,
			"target":34963
		},
		{
			"buffer":0,
			"byteLength":1536,
			"byteOffset":149652,
			"target":34962
		},
		{
			"buffer":0,
			"byteLength":1024,
			"byteOffset":151188,
			"target":34962
		},
		{
			"buffer":0,
			"byteLength":1536,
			"byteOffset":152212,
			"target":34962
		},
		{
			"buffer":0,
			"byteLength":744,
			"byteOffset":153748,
			"target":34963
		}
	],
	"samplers":[
		{
			"magFilter":9729,
			"minFilter":9987
		}
	],
	"buffers":[
		{
			"byteLength":154492,
			"uri":"data:application/octet-stream;base64,"
		}
	]
}
